<?xml version="1.0" encoding="utf-8"?>
<!-- Generator: Adobe Illustrator 27.5.0, SVG Export Plug-In . SVG Version: 6.00 Build 0)  -->
<svg version="1.1" xmlns="http://www.w3.org/2000/svg" xmlns:xlink="http://www.w3.org/1999/xlink" x="0px" y="0px"
	 viewBox="0 0 500 500" style="enable-background:new 0 0 500 500;" xml:space="preserve">
<g id="BACKGROUND">
	<path style="fill:#D2EDF7;" d="M0,0v500h500V0H0z M250,468.778c-120.828,0-218.778-97.95-218.778-218.778
		S129.172,31.222,250,31.222S468.778,129.172,468.778,250S370.828,468.778,250,468.778z"/>
</g>
<g id="OBJECTS">
	<g>
		<g>
			<path style="fill:#104D26;" d="M182.796,270.272c15.557,4.035,33.556-0.15,46.9,8.807c4.273,2.868,7.575,6.801,10.402,11.134
				v21.023c-9.606,5.133-22.438,4.738-33.166,3.107c-16.889-2.568-33.531-6.677-50.621-7.822
				c-15.312-1.026-31.807,0.913-45.808,7.411c-0.216-0.236-0.472-0.457-0.807-0.638c-10.684-5.788-22.605-8.117-34.67-6.506
				c-3.771,0.504-3.821,6.51,0,6c10.14-1.354,20.062,0.1,29.217,4.463c-7.763,4.688-14.46,11.049-19.324,19.428
				c-1.943,3.346,3.241,6.37,5.181,3.028c16.56-28.523,53.496-29.784,82.354-25.339c3.925,0.605,8.327,1.496,13.013,2.449
				c2.915,2.75,6.977,4.32,10.906,5.46c6.652,1.931,13.572,3.114,20.485,3.153c-4.775,0.713-9.663,1.053-14.603,1.177
				c-9.182-0.406-18.354-1.137-27.527-0.4c-5.669-0.092-11.241-0.05-16.611,0.389c-13.569,1.108-26.68,4.846-38.501,11.672
				c-5.669,3.273-10.999,7.189-15.821,11.617c-4.182,3.84-9.805,8.659-11.052,14.441c-0.812,3.765,4.971,5.374,5.786,1.595
				c1.278-5.926,9.146-11.742,13.689-15.384c5.321-4.265,11.223-7.862,17.42-10.704c6.64-3.045,13.522-4.959,20.547-6.121
				c-5.024,3.122-9.502,7.223-13.481,12.388c-9.632,12.502-16.647,26.839-21.126,41.945c-1.1,3.71,4.689,5.294,5.786,1.595
				c4.738-15.979,12.545-32.427,24.081-44.679c8.156-8.662,18.914-11.865,30.148-12.793c5.229,0.072,10.551,0.224,15.893,0.279
				c8.667,4.812,20.287,0.467,29.716,4.065c0.52,0.198,1.043,0.42,1.574,0.596c-4.773,3.348-9.762,6.43-14.705,9.455
				c-3.288,2.013-0.277,7.204,3.028,5.181c11.635-7.122,23.378-14.591,32.361-24.811c0.04,4.266,1.602,8.378,2.131,12.617
				c0.155,1.248,0.214,2.501,0.217,3.756c-0.037,0.103-0.071,0.21-0.108,0.313c-0.122,0.34-0.259,0.661-0.389,0.99
				c-1.491,3.103-3.306,6.004-5.433,8.633c-4.016,4.135-9.394,6.572-15.948,7.573c-4.999,0.764-11.04,1.599-15.764-0.443
				c-4.228-1.828-7.75-5.033-11.828-7.173c-8.134-4.268-17.353-6.239-26.257-3.34c-3.656,1.19-2.091,6.986,1.595,5.786
				c5.952-1.938,11.948-1.319,17.733,0.938c3.401,1.327,6.341,3.311,9.318,5.258c-1.594,0.248-3.154,0.623-4.664,1.188
				c-5.855,2.19-10.443,6.395-15.201,10.295c-3.091,2.534-6.302,4.956-10.07,6.393c-3.812,1.454-7.92,1.945-11.858,2.932
				c-6.532,1.638-12.343,4.686-16.442,10.164c-2.994,4-6.672,10.495-2.809,14.916c2.545,2.913,6.775-1.345,4.243-4.243
				c-1.315-1.505,4.285-8.314,5.265-9.286c3.173-3.145,7.057-4.692,11.339-5.766c6.812-1.708,13.37-2.715,19.281-6.785
				c5.259-3.622,9.664-8.476,15.272-11.59c6.829-3.792,14.586-2.845,22.054-2.297c3.293,0.242,6.658,0.415,9.962,0.155
				c-3.1,2.111-6.251,4.119-9.294,6.119c-19.39,12.746-40.82,28.509-41.85,53.924c-0.156,3.861,5.844,3.854,6,0
				c1.155-28.51,30.628-42.353,50.783-56.774c9.06-6.483,17.176-13.939,21.432-24.471c0.219-0.542,0.419-1.088,0.618-1.635
				c0.122,0.089,0.255,0.149,0.397,0.176c-0.667,2.187-1.331,4.376-1.945,6.574c-1.613,5.773-2.785,11.601-3.153,17.591
				c-0.425,6.919,0.121,14.012-1.72,20.769c-5.995,21.998-36.118,24.021-43.789,45.297c-1.312,3.639,4.484,5.206,5.786,1.595
				c4.09-11.343,16.877-16.927,26.135-23.375c0.009-0.006,0.017-0.012,0.026-0.018c-0.01,1.522,0.181,3.095,0.517,4.708
				c1.654,7.957,2.791,14.389-1.189,21.995c-1.788,3.418,3.388,6.455,5.181,3.028c2.533-4.841,4.009-10.062,3.834-15.565
				c-0.175-5.512-4.95-14.167-0.73-18.802c0.646-0.709,0.867-1.505,0.798-2.257c4.602-4.564,8.15-9.948,9.622-16.67
				c0.925-4.227,1.135-8.537,1.261-12.849c0.984,2.308,2.257,4.584,3.876,6.82c3.481,4.808,8.177,7.82,13.26,10.266
				c0.018,0.039,0.025,0.076,0.045,0.115c5.099,10.086-2.769,20.473-6.629,29.512c-1.502,3.517-6.866,17.584,0.028,18.814
				c3.399,0.607,5.036-4.006,2.56-5.43c0.598,0.037,0.718-0.56,0.341-1.818c0.141-1.527,0.426-3.025,0.856-4.494
				c0.725-2.67,1.869-5.195,3.06-7.683c1.67-3.489,3.528-6.885,4.956-10.487c2-5.046,2.93-10.264,2.028-15.366
				c3.579,1.476,7.163,2.948,10.499,4.795c3.642,2.017,7.067,4.343,10.258,6.938c-2.062,4.38-3.494,8.904-4.011,13.738
				c-0.366,3.421-1.035,9.552,0.905,12.815c0.105,0.236,0.262,0.455,0.46,0.658c1.295,1.508,3.976,1.993,5.044-0.161
				c0.036-0.073,0.073-0.146,0.109-0.219c0.59-1.19,0.502-2.949-0.621-3.82c-0.934-2.739-0.118-7.851,0.215-10.081
				c0.453-3.035,1.367-5.951,2.582-8.754c4.144,4.026,7.798,8.549,10.907,13.472c0.033,0.471,0.201,0.965,0.583,1.465
				c0.502,0.678,1.009,1.361,1.512,2.039c2.249,3.028,7.109,0.425,5.179-3.031c-5.68-10.169-13.447-18.914-22.922-25.701
				c-4.645-3.327-9.639-6.025-14.898-8.245c-6.398-2.7-13.42-4.815-18.625-9.627c-10.361-9.579-8.988-25.554-5.772-37.846
				c0.003-0.007,0.006-0.013,0.009-0.019c0.861-1.311,1.783-2.588,2.695-3.862c3.203-4.477,6.35-9.147,7.769-14.465
				c0.299-1.122,0.507-2.28,0.617-3.449c0.428-0.069,0.367-0.059,0.795-0.129c3.322,7.265,4.195,15.401,4.588,24.196
				c0.482,10.77,1.869,21.734,9.575,29.9c2.656,2.814,6.893-1.434,4.243-4.243c-9.312-9.867-7.146-24.437-8.478-36.836
				c-0.224-2.087-0.568-4.129-1.029-6.123c3.976,3.604,8.067,7.086,10.975,11.668c3.484,5.489,5.352,11.793,7.515,17.868
				c7.55,21.203,22.444,38.579,43.017,48.082c3.482,1.608,6.534-3.562,3.028-5.181c-10.065-4.649-18.968-11.243-26.206-19.66
				c-7.509-8.733-11.881-18.695-15.667-29.447c-3.639-10.337-8.283-18.405-16.447-25.805c-3.658-3.316-7.53-6.586-10.228-10.76
				c3.428,0.788,6.935,1.341,10.439,1.896c1.041,0.271,2.084,0.538,3.126,0.803c5.395,1.371,10.886,2.725,15.932,5.13
				c2.46,1.172,4.643,2.62,6.668,4.256c3.142,3.245,5.649,7.157,7.874,11.042c6.248,10.913,10.627,22.723,17.736,33.165
				c6.832,10.034,15.169,18.881,24.722,26.361c3.006,2.354,7.281-1.863,4.243-4.243c-10.24-8.017-19.114-17.578-26.048-28.601
				c-3.674-5.84-6.579-12.098-9.572-18.305c0.125,0.095,0.243,0.197,0.37,0.29c5.075,3.72,11.073,5.656,17.11,7.183
				c6.599,1.669,13.305,2.968,19.384,6.17c6.065,3.195,11.296,7.688,15.426,13.155c2.299,3.043,7.511,0.056,5.181-3.028
				c-7.322-9.691-17.049-16.352-28.741-19.67c-6.582-1.868-13.548-2.815-19.803-5.704c-6.381-2.947-10.757-8.153-15.187-13.415
				c-2.73-3.242-5.534-6.017-8.524-8.404c-5.337-5.268-11.76-8.707-19.766-10.459c-1.048-0.229-2.105-0.43-3.166-0.622
				c1.154-0.153,2.3-0.281,3.438-0.368c15.243-1.176,30.104,1.539,44.959,4.608c5.549,1.147,10.831,1.542,16.279,0.332
				c4.567,7.188,12.971,9.252,20.326,13.039c9.563,4.923,15.118,16.271,21.061,24.829c2.187,3.15,7.391,0.154,5.181-3.028
				c-5.517-7.944-10.637-17.804-18.323-23.88c-6.617-5.23-16.736-6.298-22.164-12.825c5.091-1.842,10.044-4.011,15.513-4.614
				c12.855-1.418,25.698,3.368,34.653,12.618c2.691,2.779,6.931-1.466,4.243-4.243c-7.955-8.217-18.52-13.258-29.903-14.385
				c-5.736-0.567-11.611-0.038-17.147,1.572c-7.219,2.099-13.912,6.152-21.661,5.762c-7.715-0.389-15.462-2.998-23.101-4.183
				c-7.104-1.102-14.271-1.851-21.465-1.89c-7.012-0.038-13.879,0.764-20.772,1.978c-2.028,0.357-4.088,0.725-6.15,0.992
				c-1.475-0.531-2.92-1.125-4.328-1.788c-0.273-2.198-0.588-4.393-0.893-6.588v-19.915c1.619-4.436,3.64-8.688,6.841-12.107
				c8.357-8.928,21.936-9.72,34.079-11.169c17.256-2.058,34.209-6.632,50.159-13.532c7.319-3.167,15.613-6.862,22.908-3.64
				c4.291,1.896,7.255,5.845,10.052,9.611c3.615,4.867,7.639,9.979,14.365,10.368c3.436,0.199,6.697-1.853,7.781-5.12
				c0.152-0.457,0.243-0.944,0.149-1.414c-0.297-1.49-2.113-2.002-3.589-2.361c-8.005-1.951-14.854-8.116-17.634-15.872
				c-0.158-0.441-0.305-0.916-0.191-1.371c0.14-0.557,0.637-0.944,1.124-1.249c4.669-2.917,10.637-2.081,16.112-2.654
				c5.476-0.573,11.786-4.174,11.298-9.657c-11.142,5.456-25.813-2.044-36.404,4.419c-4.356,2.658-8.515,7.671-13.375,6.118
				c0.369-11.16,10.189-19.231,17.555-27.623c9.768-11.129,16.19-25.16,18.209-39.831c0.107-0.776-0.206-1.595-0.88-1.993
				c-1.146-0.677-2.17,0.336-2.812,1.276c-3.138,4.595-4.446,10.154-6.517,15.318c-3.031,7.558-7.803,14.412-13.839,19.878
				c-5.959,5.395-13.255,9.606-17.481,16.443c-2.773,4.487-4.011,9.808-6.937,14.196c-4.373,6.557-11.877,10.182-19.023,13.507
				c-1.231,0.573-2.665,1.159-3.864,0.063c-0.706-0.645-1.004-1.618-0.978-2.574c0.206-7.454,6.292-14.76,3.611-21.74
				c-7.184,3.211-8.821,12.452-13.071,19.076c-2.946,4.591-7.478,8.143-12.641,9.905c-6.65,2.269-13.883,1.57-20.908,1.402
				c-6.883-0.165-14.037,0.32-20.172,3.34c3.308-8.52,8.475-16.336,15.758-21.775c5.347-3.993,11.608-6.567,17.256-10.121
				c9.75-6.135,17.432-15.023,26.529-22.091c15.7-12.198,35.57-18.958,49.125-33.502c6.249-6.705,10.902-14.887,13.468-23.686
				c-12.2,15.908-27.243,31.11-46.642,36.164c4.654-8.446,10.015-16.503,16.007-24.059c4.387-5.531,9.165-10.879,12.169-17.267
				c3.005-6.388,3.999-14.191,0.633-20.396c-3.747,16.574-18.964,27.632-28.435,41.74c-4.507,6.715-7.787,14.275-13.033,20.43
				c-6.848,8.035-16.477,13.042-25.332,18.79c-9.309,6.042-17.938,13.054-26.475,20.154c0.543-4.613,0.191-9.342-0.179-13.996
				c-0.263-3.31-0.526-6.62-0.789-9.929c-0.132-1.658-0.274-3.357-0.976-4.865c-0.702-1.508-2.092-2.809-3.752-2.92
				c-1.352,9.689-3.39,19.282-6.092,28.684c-1.413,4.916-3.016,10.03-2.075,15.05c-2.841,2.712-5.533,5.552-7.923,8.568
				c-6.901-17.699-6.115-37.683-3.731-56.846c3.037-8.677,8.291-16.368,16.116-21.035c0.33-0.197,0.673-0.369,1.009-0.555
				c1.647,2.434,5.356,3.442,8.508,3.898c11.315,1.637,23.116,2.798,33.968-0.798c5.52-1.829,11.272-5.871,11.441-11.683
				c-8.403,1.685-17.828,2.111-25.218-1.732c1.913-0.961,3.743-2.073,5.437-3.438c4.703-3.787,7.989-9.123,12.772-12.808
				c8.93-6.879,22.382-7.534,28.997-16.661c4.792-6.612,4.337-15.556,3.387-23.666l-0.138-0.175
				c-3.184,4.082-6.367,8.165-9.551,12.247c-1.005,1.289-2.061,2.62-3.528,3.34c-1.399,0.687-3.009,0.74-4.553,0.953
				c-7.572,1.044-13.996,6.12-19.079,11.828c-5.645,6.339-10.155,13.675-16.545,19.325c-1.374,1.215-3.163,1.937-4.991,1.788
				c-3.415-0.277-4.308-2.978-4.494-5.461c-0.546-7.286,3.709-14.061,8.531-19.55c4.822-5.489,10.47-10.442,13.757-16.968
				c3.287-6.525,3.487-15.401-1.941-20.292c-0.87-0.784-1.928-1.476-3.421-0.602c-1.218,0.714-1.928,2.037-2.109,3.437
				c-2.211,17.086-14.635,30.539-26.479,42.878c-6.748,7.029-13.496,14.059-20.243,21.088c-0.068-0.302-0.128-0.609-0.205-0.906
				c-1.228-4.752-3.318-9.329-3.69-14.223c-0.601-7.906,3.395-15.506,8.509-21.566c5.114-6.059,11.393-11.037,16.659-16.964
				c5.266-5.927,9.62-13.245,9.624-21.174c-12.354,9.1-22.475,21.209-29.238,34.982c-2.024-2.549-1.39-6.205-0.906-9.424
				c0.742-4.939,0.863-10.072-0.612-14.844c-1.475-4.772-4.721-9.159-9.296-11.163c4.091,7.765,3.622,17.208,1.3,25.671
				c-1.841,6.709-4.741,13.063-7.29,19.541c-1.044-1.806-2.402-3.43-4.027-4.739c-3.403-2.74-7.868-4.186-10.618-7.581
				c-3.818-4.714-3.118-11.523-2.064-17.497c1.054-5.974,2.14-12.619-1.169-17.704c0.721,9.739-7.474,18.522-6.621,28.25
				c0.181,2.064,0.543,4.654-1.223,5.738c-0.648,0.397-1.439,0.461-2.197,0.51c-3.586,0.228-7.495,0.236-10.369-1.922
				c-1.865-1.4-3.017-3.52-4.338-5.442c-7.63-11.105-22.9-16.275-35.707-12.088c7.641,1.687,14.671,6.025,19.604,12.1
				c3.267,4.022,5.651,8.782,9.435,12.322c10.886,10.184,29.771,7.381,40.443,17.789c1.347,1.313,3.158,2.892,4.809,2.901
				c-1.333,6.097-1.638,12.375,0.154,18.297c0.561,1.855,1.329,3.627,2.247,5.322c-0.008,1.984-0.026,3.963-0.183,5.885
				c-0.332,4.075-1.346,8.058-2.116,12.073c-0.179,0.936-0.334,1.876-0.487,2.817c-0.856,2.312-1.56,4.678-2.13,7.087
				c-7.131-3.823-12.641-10.632-14.758-18.452c-1.463-5.404-1.381-11.148-2.997-16.508c-1.617-5.36-5.719-10.643-11.307-10.981
				l-1.093,0.354c3.69,2.106,5.535,6.519,5.827,10.758c0.291,4.239-0.7,8.445-1.372,12.64c-0.323,2.018-0.566,4.06-0.684,6.104
				c-1.504-1.392-2.964-2.827-4.288-4.388c-6.038-7.12-9.013-16.291-13.887-24.252c-4.604-7.52-10.95-13.965-18.398-18.684
				c-2.773-1.757-5.728-3.304-8.069-5.605c-2.34-2.301-4.018-5.588-3.422-8.816c-2.166,5.792-1.209,12.649,2.46,17.626
				c3.015,4.09,7.524,6.752,11.572,9.823c8.1,6.144,14.669,14.292,18.956,23.511c2.177,4.681,3.815,9.699,6.973,13.783
				c1.27,1.642,2.753,3.059,4.359,4.338c4.162,7.689,8.69,15.179,13.59,22.421c1.469,2.171,3.093,4.238,4.894,6.143
				c2.26,2.389,4.979,4.703,8.232,5.521c0.311,0.078,0.628,0.139,0.948,0.185c-0.018,2.574-0.006,5.141,0.016,7.687
				c0.068,7.859,0.135,15.719,0.202,23.578c-2.97-3.628-5.716-7.438-8.202-11.414c-2.629-4.205-4.985-8.585-7.823-12.653
				c-3.076-4.408-6.689-8.41-10.293-12.398c-5.543-6.135-11.136-12.316-17.796-17.216c-3.699-2.722-7.7-5.028-11.29-7.892
				c-12.777-10.195-19.081-26.258-27.456-40.431c-2.845-5.269-6.394-10.145-10.519-14.487c-0.198-0.21-0.396-0.421-0.598-0.628
				c-3.535-3.627-7.448-6.885-11.704-9.631c-0.847,3.703-0.771,7.733,0.919,11.134c2.937,5.912,10.028,8.813,13.167,14.621
				c2.48,4.589,2.073,10.214,3.942,15.083c2.288,5.96,7.646,10.079,12.564,14.151c1.013,0.839,2.063,1.754,2.436,3.024
				c0.224,0.762,0.108,1.614-0.346,2.266c-0.651,0.935-1.513,0.866-2.327,0.768c-6.897-0.831-13.557-3.544-19.071-7.77
				c-8.257-6.327-13.609-15.613-20.217-23.647c-3.785-4.601-9.622-9.212-15.122-6.923c7.81,9.693,15.637,19.411,22.335,29.904
				c2.616,4.099,5.11,8.376,8.715,11.639c7.327,6.631,17.83,7.966,27.524,9.885c5.782,1.145,11.592,2.637,16.673,5.623
				c4.115,2.419,7.615,5.738,11.075,9.026c4.413,4.194,8.825,8.388,13.238,12.582c2.386,2.268,4.818,4.596,6.316,7.528
				c1.498,2.932,1.909,6.634,0.207,9.452c-5.504-2.48-11.007-4.961-16.511-7.441c-5.664-2.553-11.374-5.132-16.392-8.796
				c-3.675-2.683-6.917-5.905-10.143-9.114c-2.454,7.857,3.552,16.083,10.711,20.146c7.159,4.062,15.53,5.504,22.873,9.223
				c9.607,4.866,16.927,13.344,26.229,18.771c2.051,1.197,4.265,2.26,6.635,2.406c0.009,0.001,0.018-0.001,0.027,0
				c-0.069,3.343-0.13,6.686-0.179,10.029h-0.148v0.77c-4.006-2.454-8.954-3.641-13.67-4.44c-6.356-1.078-12.779-1.763-19.22-2.051
				c-7.186-0.321-14.441-0.152-21.497-1.544c-7.057-1.391-14.071-4.561-18.428-10.284c-4.072-5.349-5.414-12.321-9.079-17.957
				c-4.492-6.908-12.392-11.736-14.644-19.663c-1.743-6.136,0.342-12.926-1.689-18.973c-3.683,0.537-5.588,4.792-5.796,8.509
				s0.568,7.585-0.7,11.085c-0.34,0.938-0.866,1.871-1.737,2.356c-0.921,0.513-2.05,0.435-3.089,0.253
				c-6.694-1.178-12.509-6.399-14.398-12.928c-1.297-4.483-0.841-9.299-1.834-13.859c-2.3-10.562-11.783-17.896-21.145-23.3
				c-0.982-0.567-2.075-1.149-3.266-0.398c-0.998,0.629-1.375,1.902-1.078,3.044c0.597,2.3,2.736,3.371,4.597,4.558
				c5.324,3.396,9.306,8.838,10.932,14.94c0.471,1.769,0.731,3.79-1.105,5.134c-0.849,0.621-1.929,0.863-2.977,0.778
				c-2.637-0.215-4.625-1.948-6.81-3.225c-3.366-1.967-7.341-2.876-11.227-2.567c-1.028,1.864,0.868,3.97,2.647,5.139
				c5.977,3.928,13.028,6.428,17.936,11.631c3.928,4.164,6.151,9.742,10.246,13.742c6.227,6.082,15.708,7.55,22.558,12.92
				c4.541,3.56,7.631,8.595,10.945,13.318c0.801,1.142,1.635,2.269,2.485,3.388c-3.588-0.448-7.514-0.001-11.14,0.33
				c-8.483,0.775-17.291,0.346-25.097-3.064c-7.566-3.305-13.678-9.16-20.549-13.738c-6.872-4.577-15.439-7.961-23.301-5.438
				c4.291,6.105,14.439,7.693,15.885,15.014c-5.329-0.603-10.897,1.679-14.271,5.847c-0.464,0.572-0.914,1.248-0.434,2.086
				c0.411,0.718,1.253,1.081,2.079,1.031c8.083-0.491,16.462-1.738,24.204,0.728c7.198,2.294,13.299,7.659,20.749,8.911
				c7.159,1.204,14.346-1.585,21.593-2.009c7.697-0.45,15.527,1.883,21.723,6.471c-5.6,8.15-16.07,11.116-25.734,13.209
				c2.343,3.309,6.927,4.023,10.981,3.964c9.027-0.131,18.006-2.718,25.718-7.41c0.007-0.004,0.014-0.008,0.02-0.012
				c1.631-0.995,3.523-1.478,5.429-1.338L182.796,270.272z"/>
		</g>
		<g>
			<g>
				<path style="fill:#40B652;" d="M293.319,205.136c-2.571-3.38-2.956-8.086-1.717-12.148c1.239-4.062,3.923-7.548,6.994-10.481
					c2.676,1.932,4.177,5.09,5.21,8.225c0.693,2.103,1.231,4.322,0.945,6.518c-0.545,4.186-4.069,7.517-8.028,8.98
					c-0.593,0.219-1.223,0.407-1.85,0.322c-0.627-0.085-1.247-0.51-1.372-1.13"/>
			</g>
			<g>
				<path style="fill:#40B652;" d="M306.874,247.266c-1.427-4-0.37-8.602,2.04-12.098c2.41-3.497,6.023-6.006,9.838-7.872
					c1.966,2.652,2.44,6.116,2.476,9.417c0.024,2.214-0.135,4.492-1.073,6.498c-1.787,3.825-6.153,5.933-10.37,6.129
					c-0.632,0.029-1.289,0.018-1.861-0.253c-0.572-0.27-1.034-0.864-0.966-1.493"/>
			</g>
			<g>
				<path style="fill:#40B652;" d="M353.275,255.284c3.065-2.94,7.696-3.859,11.873-3.092c4.177,0.767,7.946,3.036,11.21,5.753
					c-1.614,2.879-4.581,4.73-7.578,6.114c-2.01,0.928-4.154,1.716-6.368,1.682c-4.221-0.064-7.932-3.185-9.837-6.952
					c-0.286-0.564-0.544-1.169-0.531-1.801c0.012-0.632,0.365-1.298,0.966-1.492"/>
			</g>
			<g>
				<path style="fill:#40B652;" d="M398.785,150.744c3.065-2.94,7.696-3.859,11.873-3.092s7.946,3.036,11.21,5.753
					c-1.614,2.879-4.581,4.73-7.578,6.114c-2.01,0.928-4.154,1.716-6.368,1.682c-4.221-0.064-7.932-3.185-9.837-6.952
					c-0.285-0.564-0.544-1.169-0.531-1.801c0.013-0.632,0.365-1.298,0.966-1.492"/>
			</g>
			<g>
				<path style="fill:#40B652;" d="M361.392,118.838c0.087-4.246,2.711-8.172,6.206-10.584c3.496-2.412,7.765-3.474,11.994-3.862
					c0.895,3.177,0.107,6.584-1.032,9.682c-0.764,2.078-1.723,4.151-3.312,5.693c-3.029,2.94-7.86,3.359-11.871,2.044
					c-0.601-0.197-1.211-0.441-1.65-0.897c-0.438-0.456-0.66-1.175-0.372-1.738"/>
			</g>
			<g>
				<path style="fill:#40B652;" d="M346.832,232.464c-0.351-4.232,1.853-8.408,5.081-11.168c3.228-2.76,7.365-4.257,11.531-5.08
					c1.218,3.068,0.786,6.538-0.027,9.736c-0.546,2.146-1.285,4.306-2.706,6.004c-2.709,3.237-7.471,4.152-11.596,3.258
					c-0.618-0.134-1.25-0.314-1.733-0.722c-0.483-0.408-0.778-1.101-0.55-1.691"/>
			</g>
			<g>
				<path style="fill:#40B652;" d="M322.196,184.534c-1.452-3.991-0.424-8.599,1.964-12.111c2.388-3.512,5.985-6.044,9.788-7.934
					c1.982,2.639,2.478,6.1,2.535,9.401c0.038,2.214-0.107,4.493-1.031,6.505c-1.763,3.836-6.116,5.972-10.331,6.194
					c-0.632,0.033-1.289,0.026-1.862-0.241c-0.574-0.267-1.04-0.857-0.975-1.487"/>
			</g>
			<g>
				<path style="fill:#40B652;" d="M336.508,103.201c-1.452-3.991-0.424-8.599,1.964-12.111c2.388-3.512,5.985-6.044,9.788-7.935
					c1.982,2.639,2.478,6.1,2.535,9.401c0.038,2.214-0.107,4.493-1.031,6.505c-1.762,3.836-6.116,5.971-10.331,6.194
					c-0.632,0.033-1.289,0.026-1.862-0.241c-0.573-0.267-1.04-0.857-0.975-1.487"/>
			</g>
			<g>
				<path style="fill:#40B652;" d="M284.644,181.908c-0.888-2.991,0.07-6.325,1.977-8.794c1.907-2.469,4.657-4.167,7.53-5.384
					c1.337,2.023,1.547,4.583,1.442,7.006c-0.07,1.625-0.278,3.29-1.045,4.724c-1.462,2.735-4.749,4.108-7.85,4.084
					c-0.465-0.004-0.946-0.038-1.355-0.259c-0.409-0.221-0.725-0.675-0.649-1.133"/>
			</g>
			<g>
				<path style="fill:#40B652;" d="M337.962,217.924c-1.783-2.56-1.921-6.026-0.888-8.97c1.034-2.944,3.111-5.419,5.455-7.478
					c1.905,1.501,2.909,3.865,3.571,6.197c0.444,1.565,0.771,3.21,0.493,4.813c-0.529,3.056-3.217,5.392-6.168,6.345
					c-0.442,0.143-0.91,0.261-1.368,0.18c-0.457-0.081-0.9-0.413-0.972-0.872"/>
			</g>
			<g>
				<path style="fill:#40B652;" d="M390.682,219.919c0.15-3.116,2.155-5.946,4.771-7.647c2.615-1.701,5.772-2.395,8.885-2.595
					c0.593,2.351-0.054,4.837-0.953,7.089c-0.603,1.511-1.349,3.013-2.547,4.114c-2.284,2.098-5.84,2.308-8.759,1.262
					c-0.437-0.157-0.881-0.349-1.193-0.692c-0.313-0.344-0.461-0.876-0.238-1.284"/>
			</g>
			<g>
				<path style="fill:#40B652;" d="M411.452,245.781c0.15-3.116,2.155-5.946,4.771-7.647c2.616-1.701,5.772-2.395,8.885-2.595
					c0.593,2.351-0.054,4.837-0.953,7.089c-0.603,1.511-1.349,3.013-2.546,4.114c-2.284,2.098-5.84,2.308-8.759,1.262
					c-0.437-0.157-0.881-0.348-1.193-0.692c-0.313-0.344-0.461-0.876-0.238-1.284"/>
			</g>
			<g>
				<path style="fill:#40B652;" d="M395.203,255.846c3.064,0.588,5.583,2.972,6.898,5.801c1.315,2.829,1.557,6.052,1.316,9.163
					c-2.411,0.256-4.781-0.735-6.884-1.943c-1.411-0.81-2.793-1.76-3.714-3.101c-1.755-2.557-1.462-6.107-0.014-8.849
					c0.217-0.411,0.469-0.823,0.854-1.084c0.384-0.261,0.932-0.333,1.305-0.055"/>
			</g>
			<g>
				<path style="fill:#40B652;" d="M374.377,244.475c2.718-1.533,6.181-1.342,9.013-0.034c2.833,1.308,5.1,3.611,6.928,6.139
					c-1.674,1.754-4.123,2.53-6.508,2.968c-1.6,0.294-3.269,0.463-4.838,0.035c-2.992-0.816-5.063-3.714-5.732-6.742
					c-0.1-0.454-0.174-0.931-0.049-1.379c0.124-0.448,0.496-0.857,0.96-0.886"/>
			</g>
			<g>
				<path style="fill:#40B652;" d="M301.227,169.327c2.717-1.533,6.181-1.342,9.013-0.034c2.832,1.308,5.1,3.611,6.928,6.139
					c-1.674,1.754-4.123,2.53-6.508,2.968c-1.6,0.294-3.269,0.463-4.838,0.035c-2.992-0.816-5.063-3.714-5.732-6.742
					c-0.1-0.454-0.174-0.931-0.05-1.379c0.124-0.448,0.496-0.857,0.96-0.886"/>
			</g>
			<g>
				<path style="fill:#40B652;" d="M411.837,180.294c0.398-3.094,2.624-5.755,5.367-7.241c2.743-1.486,5.945-1.925,9.064-1.876
					c0.404,2.391-0.44,4.817-1.517,6.99c-0.722,1.458-1.585,2.896-2.867,3.897c-2.444,1.909-6.005,1.834-8.831,0.557
					c-0.424-0.191-0.85-0.418-1.134-0.785c-0.284-0.368-0.389-0.91-0.135-1.299"/>
			</g>
			<g>
				<path style="fill:#40B652;" d="M324.764,92.18c-1.482-2.745-1.227-6.205,0.134-9.012s3.705-5.032,6.267-6.813
					c1.723,1.706,2.453,4.169,2.847,6.562c0.264,1.605,0.402,3.277-0.055,4.838c-0.871,2.976-3.807,4.993-6.847,5.606
					c-0.456,0.092-0.934,0.157-1.379,0.024c-0.445-0.133-0.847-0.512-0.868-0.976"/>
			</g>
			<g>
				<path style="fill:#40B652;" d="M383.769,147.314c-0.859-2.999,0.132-6.324,2.063-8.774c1.931-2.451,4.697-4.121,7.582-5.311
					c1.317,2.036,1.502,4.598,1.374,7.02c-0.086,1.624-0.31,3.287-1.091,4.714c-1.489,2.72-4.789,4.061-7.89,4.007
					c-0.465-0.008-0.946-0.047-1.352-0.272c-0.406-0.225-0.718-0.682-0.638-1.14"/>
			</g>
			<g>
				<path style="fill:#40B652;" d="M387.389,190.206c-1.965-2.423-2.355-5.87-1.539-8.881c0.816-3.011,2.708-5.632,4.896-7.856
					c2.009,1.358,3.183,3.642,4.014,5.921c0.557,1.528,1.003,3.145,0.843,4.764c-0.305,3.086-2.816,5.613-5.689,6.778
					c-0.431,0.174-0.889,0.327-1.351,0.279c-0.462-0.048-0.928-0.346-1.034-0.799"/>
			</g>
			<g>
				<path style="fill:#40B652;" d="M286.25,117.317c-1.965-2.423-2.356-5.87-1.539-8.881c0.816-3.011,2.708-5.632,4.896-7.856
					c2.009,1.358,3.183,3.642,4.014,5.921c0.557,1.528,1.003,3.145,0.843,4.764c-0.305,3.086-2.816,5.613-5.69,6.778
					c-0.431,0.175-0.889,0.327-1.351,0.279c-0.462-0.048-0.928-0.346-1.033-0.799"/>
			</g>
			<g>
				<path style="fill:#40B652;" d="M318.078,118.799c-1.965-2.423-2.356-5.87-1.539-8.881c0.817-3.011,2.708-5.632,4.896-7.856
					c2.009,1.357,3.183,3.642,4.014,5.921c0.557,1.528,1.003,3.146,0.843,4.764c-0.305,3.086-2.816,5.613-5.689,6.778
					c-0.431,0.174-0.889,0.327-1.351,0.279c-0.462-0.048-0.928-0.346-1.034-0.799"/>
			</g>
			<g>
				<path style="fill:#40B652;" d="M368.199,208.715c-2.374-3.408-2.558-8.022-1.182-11.941c1.376-3.919,4.142-7.215,7.263-9.956
					c2.536,1.997,3.873,5.145,4.755,8.251c0.591,2.083,1.026,4.274,0.657,6.408c-0.704,4.068-4.283,7.179-8.212,8.447
					c-0.589,0.19-1.212,0.348-1.821,0.24c-0.609-0.108-1.198-0.55-1.295-1.161"/>
			</g>
			<g>
				<path style="fill:#40B652;" d="M413.532,220.464c-2.374-3.408-2.558-8.023-1.181-11.941c1.376-3.919,4.142-7.215,7.263-9.956
					c2.536,1.998,3.873,5.145,4.755,8.251c0.591,2.083,1.026,4.274,0.657,6.408c-0.704,4.068-4.283,7.179-8.212,8.447
					c-0.589,0.19-1.212,0.348-1.821,0.24c-0.609-0.108-1.198-0.55-1.295-1.161"/>
			</g>
			<g>
				<path style="fill:#40B652;" d="M347.532,154.909c-2.374-3.408-2.558-8.022-1.181-11.941c1.376-3.919,4.142-7.215,7.263-9.956
					c2.536,1.997,3.873,5.145,4.755,8.251c0.591,2.083,1.026,4.274,0.657,6.408c-0.704,4.068-4.283,7.179-8.212,8.447
					c-0.589,0.19-1.212,0.348-1.821,0.24c-0.609-0.108-1.198-0.55-1.295-1.161"/>
			</g>
			<g>
				<path style="fill:#40B652;" d="M265.659,135.353c-2.374-3.408-2.558-8.022-1.181-11.942c1.376-3.919,4.142-7.215,7.263-9.956
					c2.536,1.997,3.873,5.145,4.755,8.251c0.591,2.083,1.026,4.274,0.657,6.408c-0.704,4.068-4.283,7.179-8.212,8.447
					c-0.589,0.19-1.212,0.348-1.821,0.24c-0.609-0.108-1.198-0.55-1.295-1.161"/>
			</g>
			<g>
				<path style="fill:#40B652;" d="M279.61,179.994c-2.342-0.268-4.376-1.921-5.528-3.978c-1.152-2.057-1.518-4.471-1.514-6.829
					c1.802-0.33,3.644,0.282,5.298,1.072c1.109,0.53,2.205,1.167,2.975,2.125c1.468,1.826,1.45,4.518,0.515,6.667
					c-0.14,0.322-0.307,0.647-0.581,0.865c-0.275,0.219-0.684,0.304-0.98,0.116"/>
			</g>
			<g>
				<path style="fill:#40B652;" d="M331.165,228.883c-2.342-0.268-4.376-1.921-5.528-3.978c-1.152-2.057-1.518-4.471-1.514-6.829
					c1.802-0.33,3.644,0.282,5.298,1.072c1.109,0.53,2.205,1.167,2.975,2.125c1.468,1.826,1.449,4.518,0.515,6.667
					c-0.14,0.322-0.307,0.647-0.581,0.865c-0.275,0.219-0.684,0.304-0.98,0.116"/>
			</g>
			<g>
				<path style="fill:#40B652;" d="M428.946,229.561c0.206-2.349,1.804-4.426,3.829-5.633c2.025-1.207,4.429-1.637,6.786-1.696
					c0.378,1.793-0.184,3.651-0.93,5.324c-0.5,1.123-1.108,2.235-2.045,3.031c-1.786,1.516-4.478,1.57-6.651,0.693
					c-0.326-0.131-0.655-0.289-0.88-0.558c-0.226-0.269-0.322-0.675-0.142-0.977"/>
			</g>
			<g>
				<path style="fill:#40B652;" d="M397.309,173.632c-1.504-1.815-1.827-4.416-1.234-6.698c0.593-2.282,2.001-4.277,3.636-5.975
					c1.529,1.01,2.434,2.727,3.08,4.441c0.433,1.15,0.783,2.369,0.675,3.593c-0.205,2.334-2.082,4.263-4.245,5.167
					c-0.324,0.135-0.669,0.254-1.019,0.222c-0.35-0.032-0.704-0.254-0.787-0.595"/>
			</g>
			<g>
				<path style="fill:#40B652;" d="M324.54,145.42c0.228-2.347,1.845-4.409,3.882-5.596c2.036-1.188,4.444-1.595,6.802-1.632
					c0.361,1.796-0.218,3.649-0.98,5.315c-0.511,1.118-1.129,2.225-2.073,3.011c-1.801,1.499-4.492,1.527-6.657,0.63
					c-0.324-0.134-0.652-0.295-0.875-0.566c-0.223-0.271-0.316-0.678-0.133-0.978"/>
			</g>
			<g>
				<path style="fill:#40B652;" d="M302.829,134.67c-0.807-2.215-0.238-4.773,1.087-6.724c1.324-1.95,3.321-3.357,5.431-4.407
					c1.101,1.464,1.378,3.386,1.41,5.218c0.022,1.229-0.058,2.494-0.57,3.611c-0.977,2.13-3.393,3.317-5.733,3.442
					c-0.35,0.019-0.715,0.015-1.034-0.133c-0.318-0.148-0.577-0.476-0.542-0.825"/>
			</g>
			<g>
				<path style="fill:#40B652;" d="M299.025,97.849c-1.475-1.839-1.755-4.445-1.126-6.717c0.63-2.272,2.07-4.244,3.732-5.916
					c1.513,1.034,2.39,2.766,3.008,4.491c0.415,1.157,0.744,2.381,0.617,3.604c-0.243,2.331-2.151,4.229-4.328,5.098
					c-0.326,0.13-0.673,0.243-1.022,0.205c-0.349-0.038-0.699-0.265-0.778-0.608"/>
			</g>
			<g>
				<path style="fill:#40B652;" d="M290.312,244.596c0.205-2.349,1.804-4.426,3.829-5.632c2.025-1.207,4.429-1.637,6.786-1.696
					c0.378,1.793-0.184,3.65-0.93,5.324c-0.5,1.123-1.108,2.235-2.045,3.031c-1.787,1.516-4.478,1.57-6.651,0.693
					c-0.326-0.131-0.655-0.289-0.88-0.558c-0.226-0.269-0.322-0.675-0.142-0.977"/>
			</g>
			<g>
				<path style="fill:#40B652;" d="M366.281,163.72c0.205-2.348,1.804-4.426,3.829-5.632c2.025-1.207,4.429-1.637,6.786-1.696
					c0.378,1.793-0.184,3.651-0.93,5.324c-0.5,1.123-1.108,2.235-2.045,3.031c-1.786,1.516-4.478,1.57-6.651,0.693
					c-0.326-0.131-0.655-0.289-0.88-0.558c-0.226-0.269-0.322-0.675-0.142-0.977"/>
			</g>
			<g>
				<path style="fill:#40B652;" d="M419.827,262.004c0.552-2.437,2.515-4.31,4.798-5.18c2.283-0.87,4.847-0.846,7.31-0.44
					c0.136,1.966-0.717,3.814-1.735,5.432c-0.682,1.085-1.475,2.138-2.565,2.79c-2.079,1.244-4.888,0.766-7.025-0.591
					c-0.32-0.203-0.64-0.435-0.837-0.764c-0.197-0.328-0.238-0.776-0.007-1.059"/>
			</g>
			<g>
				<path style="fill:#40B652;" d="M272.582,201.849c-3.811-1.874-6.259-5.912-6.967-10.099c-0.708-4.188,0.135-8.505,1.571-12.502
					c3.258,0.532,6.012,2.686,8.337,5.029c1.56,1.571,3.033,3.316,3.759,5.408c1.384,3.988-0.279,8.543-3.167,11.622
					c-0.433,0.461-0.912,0.911-1.511,1.115c-0.598,0.204-1.344,0.101-1.733-0.398"/>
			</g>
		</g>
		<g>
			<g>
				<path style="fill:#40B652;" d="M193.576,175.747c2.571-3.38,2.956-8.086,1.717-12.148c-1.239-4.062-3.923-7.548-6.994-10.481
					c-2.676,1.932-4.177,5.09-5.21,8.225c-0.693,2.103-1.231,4.322-0.945,6.518c0.545,4.186,4.069,7.517,8.028,8.98
					c0.593,0.219,1.223,0.407,1.85,0.322c0.627-0.085,1.247-0.51,1.372-1.13"/>
			</g>
			<g>
				<path style="fill:#40B652;" d="M186.612,251.459c1.427-4,0.37-8.602-2.04-12.098c-2.41-3.497-6.023-6.006-9.838-7.872
					c-1.966,2.652-2.44,6.116-2.476,9.416c-0.024,2.214,0.135,4.492,1.073,6.498c1.787,3.824,6.153,5.933,10.37,6.129
					c0.632,0.029,1.289,0.018,1.861-0.253c0.572-0.27,1.034-0.864,0.966-1.493"/>
			</g>
			<g>
				<path style="fill:#40B652;" d="M149.163,261.358c-3.065-2.94-7.696-3.859-11.873-3.092c-4.177,0.767-7.946,3.036-11.21,5.753
					c1.615,2.879,4.581,4.73,7.578,6.114c2.01,0.928,4.154,1.716,6.368,1.682c4.221-0.064,7.932-3.185,9.837-6.952
					c0.285-0.564,0.544-1.169,0.531-1.801c-0.013-0.632-0.365-1.298-0.966-1.492"/>
			</g>
			<g>
				<path style="fill:#40B652;" d="M177.234,196.144c-1.733-3.086-5.204-4.94-8.721-5.339c-3.517-0.399-7.072,0.499-10.333,1.875
					c0.591,2.687,2.509,4.881,4.564,6.71c1.379,1.227,2.897,2.373,4.671,2.882c3.382,0.97,7.097-0.621,9.528-3.164
					c0.364-0.381,0.717-0.8,0.86-1.308c0.143-0.507,0.023-1.123-0.41-1.424"/>
			</g>
			<g>
				<path style="fill:#40B652;" d="M100.825,153.019c-1.598-3.421-5.142-5.669-8.852-6.373c-3.709-0.704-7.562-0.032-11.14,1.173
					c0.415,2.905,2.28,5.391,4.321,7.5c1.369,1.415,2.893,2.755,4.74,3.438c3.52,1.301,7.598-0.095,10.386-2.607
					c0.418-0.376,0.826-0.794,1.019-1.323c0.192-0.528,0.114-1.193-0.322-1.547"/>
			</g>
			<g>
				<path style="fill:#40B652;" d="M131.979,119.688c-0.066-3.225-2.059-6.206-4.714-8.038c-2.655-1.832-5.897-2.638-9.109-2.933
					c-0.68,2.413-0.081,5,0.784,7.353c0.581,1.578,1.308,3.152,2.515,4.324c2.301,2.233,5.97,2.551,9.016,1.552
					c0.456-0.15,0.92-0.335,1.253-0.682c0.333-0.346,0.501-0.892,0.283-1.32"/>
			</g>
			<g>
				<path style="fill:#40B652;" d="M147.742,113.236c2.716-3.086,3.413-7.602,2.498-11.61c-0.915-4.008-3.265-7.558-6.027-10.603
					c-2.717,1.68-4.384,4.626-5.598,7.581c-0.815,1.982-1.487,4.088-1.363,6.227c0.237,4.079,3.408,7.539,7.13,9.225
					c0.558,0.253,1.153,0.478,1.764,0.439c0.611-0.038,1.24-0.406,1.403-0.996"/>
			</g>
			<g>
				<path style="fill:#40B652;" d="M133.635,239.803c0.351-4.232-1.853-8.408-5.081-11.168c-3.228-2.76-7.364-4.257-11.531-5.08
					c-1.218,3.068-0.786,6.538,0.027,9.736c0.546,2.146,1.285,4.306,2.706,6.004c2.709,3.237,7.471,4.152,11.596,3.258
					c0.618-0.134,1.25-0.314,1.734-0.722c0.483-0.408,0.778-1.101,0.55-1.691"/>
			</g>
			<g>
				<path style="fill:#40B652;" d="M168.584,142.615c2.788-2.403,3.961-6.323,3.642-9.99c-0.319-3.667-1.968-7.104-4.043-10.144
					c-2.616,1.157-4.457,3.564-5.896,6.036c-0.966,1.658-1.821,3.443-1.974,5.356c-0.291,3.647,2.097,7.104,5.19,9.057
					c0.463,0.293,0.964,0.565,1.51,0.606c0.547,0.041,1.149-0.208,1.367-0.711"/>
			</g>
			<g>
				<path style="fill:#40B652;" d="M210.266,132.528c1.452-3.991,0.424-8.599-1.964-12.111c-2.388-3.512-5.985-6.044-9.788-7.935
					c-1.982,2.639-2.479,6.1-2.535,9.401c-0.038,2.214,0.107,4.493,1.031,6.505c1.762,3.836,6.116,5.972,10.331,6.194
					c0.632,0.033,1.289,0.026,1.862-0.241c0.573-0.267,1.04-0.857,0.975-1.487"/>
			</g>
			<g>
				<path style="fill:#40B652;" d="M164.555,115.726c0.888-2.991-0.07-6.324-1.977-8.794c-1.907-2.469-4.657-4.167-7.53-5.384
					c-1.337,2.023-1.547,4.583-1.442,7.006c0.07,1.625,0.278,3.29,1.045,4.724c1.462,2.735,4.749,4.108,7.85,4.084
					c0.465-0.004,0.946-0.038,1.355-0.259c0.409-0.221,0.725-0.675,0.649-1.133"/>
			</g>
			<g>
				<path style="fill:#40B652;" d="M161.109,222.117c1.783-2.56,1.921-6.026,0.887-8.97c-1.034-2.944-3.111-5.419-5.455-7.478
					c-1.905,1.5-2.909,3.865-3.571,6.197c-0.444,1.565-0.771,3.21-0.493,4.813c0.529,3.056,3.217,5.392,6.169,6.345
					c0.442,0.143,0.91,0.261,1.368,0.18c0.458-0.081,0.9-0.413,0.973-0.872"/>
			</g>
			<g>
				<path style="fill:#40B652;" d="M150.494,201.305c2.702-1.198,4.409-3.898,4.874-6.736c0.464-2.839-0.18-5.798-1.244-8.551
					c-2.32,0.295-4.265,1.705-5.901,3.253c-1.098,1.038-2.132,2.196-2.63,3.607c-0.948,2.688,0.283,5.827,2.375,7.985
					c0.313,0.323,0.66,0.64,1.089,0.792c0.429,0.152,0.96,0.097,1.233-0.235"/>
			</g>
			<g>
				<path style="fill:#40B652;" d="M108.389,224.111c-0.15-3.116-2.155-5.946-4.771-7.647c-2.615-1.701-5.772-2.395-8.885-2.595
					c-0.593,2.351,0.054,4.837,0.953,7.089c0.603,1.511,1.349,3.013,2.547,4.114c2.284,2.098,5.839,2.308,8.759,1.262
					c0.437-0.157,0.881-0.349,1.193-0.692c0.313-0.344,0.461-0.876,0.239-1.284"/>
			</g>
			<g>
				<path style="fill:#40B652;" d="M194.615,208.116c-0.643-3.053-3.072-5.529-5.924-6.793c-2.852-1.264-6.079-1.448-9.185-1.151
					c-0.213,2.416,0.821,4.767,2.066,6.848c0.835,1.396,1.81,2.761,3.167,3.657c2.588,1.709,6.132,1.352,8.848-0.145
					c0.407-0.224,0.814-0.484,1.068-0.873c0.254-0.389,0.316-0.938,0.032-1.306"/>
			</g>
			<g>
				<path style="fill:#40B652;" d="M145.008,182.683c-0.643-3.053-3.072-5.529-5.924-6.793c-2.852-1.264-6.079-1.448-9.185-1.151
					c-0.213,2.415,0.821,4.767,2.066,6.848c0.835,1.396,1.81,2.761,3.167,3.657c2.588,1.709,6.132,1.352,8.848-0.145
					c0.407-0.224,0.814-0.484,1.068-0.873c0.254-0.389,0.316-0.938,0.032-1.306"/>
			</g>
			<g>
				<path style="fill:#40B652;" d="M95.728,252.414c-3.064,0.588-5.583,2.972-6.898,5.802c-1.315,2.829-1.557,6.052-1.316,9.163
					c2.411,0.256,4.781-0.735,6.884-1.943c1.41-0.81,2.793-1.76,3.714-3.101c1.755-2.557,1.462-6.107,0.014-8.849
					c-0.217-0.411-0.469-0.823-0.854-1.084s-0.933-0.333-1.305-0.055"/>
			</g>
			<g>
				<path style="fill:#40B652;" d="M119.694,260.77c-2.717-1.533-6.181-1.342-9.013-0.034c-2.832,1.308-5.1,3.611-6.928,6.139
					c1.674,1.754,4.123,2.53,6.508,2.968c1.6,0.294,3.269,0.463,4.838,0.035c2.992-0.816,5.063-3.714,5.732-6.742
					c0.1-0.454,0.174-0.931,0.05-1.379c-0.124-0.448-0.496-0.857-0.96-0.886"/>
			</g>
			<g>
				<path style="fill:#40B652;" d="M193.233,146.493c-0.773-3.023-3.307-5.391-6.211-6.532c-2.904-1.14-6.136-1.185-9.226-0.755
					c-0.108,2.423,1.026,4.727,2.359,6.753c0.895,1.359,1.927,2.681,3.322,3.518c2.659,1.596,6.185,1.087,8.834-0.525
					c0.397-0.242,0.792-0.519,1.03-0.918c0.237-0.399,0.275-0.951-0.025-1.306"/>
			</g>
			<g>
				<path style="fill:#40B652;" d="M213.74,181.926c-0.773-3.023-3.307-5.391-6.211-6.531c-2.904-1.14-6.136-1.185-9.226-0.755
					c-0.108,2.422,1.025,4.727,2.359,6.752c0.895,1.359,1.927,2.681,3.322,3.518c2.659,1.596,6.185,1.087,8.833-0.525
					c0.397-0.242,0.793-0.519,1.03-0.918c0.237-0.4,0.275-0.951-0.025-1.306"/>
			</g>
			<g>
				<path style="fill:#40B652;" d="M99.124,205.457c-0.398-3.094-2.624-5.755-5.367-7.242c-2.743-1.486-5.945-1.925-9.064-1.876
					c-0.404,2.391,0.44,4.817,1.517,6.99c0.722,1.458,1.585,2.896,2.867,3.897c2.444,1.909,6.005,1.834,8.831,0.557
					c0.424-0.191,0.85-0.418,1.134-0.785c0.284-0.367,0.389-0.91,0.135-1.299"/>
			</g>
			<g>
				<path style="fill:#40B652;" d="M206.069,80.717c0.058-3.119-1.756-6.076-4.253-7.947c-2.497-1.871-5.6-2.772-8.694-3.179
					c-0.748,2.307-0.267,4.83,0.48,7.137c0.502,1.547,1.146,3.096,2.268,4.274c2.139,2.245,5.673,2.691,8.656,1.84
					c0.447-0.128,0.902-0.289,1.237-0.612c0.335-0.322,0.518-0.844,0.323-1.265"/>
			</g>
			<g>
				<path style="fill:#40B652;" d="M115.302,151.507c0.859-2.999-0.132-6.324-2.063-8.774c-1.931-2.451-4.697-4.121-7.582-5.31
					c-1.317,2.036-1.502,4.598-1.374,7.02c0.086,1.624,0.31,3.287,1.091,4.714c1.489,2.72,4.789,4.061,7.89,4.007
					c0.465-0.008,0.946-0.047,1.352-0.272c0.407-0.225,0.718-0.682,0.638-1.14"/>
			</g>
			<g>
				<path style="fill:#40B652;" d="M116.775,175.591c1.965-2.423,2.356-5.87,1.539-8.881c-0.816-3.011-2.708-5.632-4.896-7.856
					c-2.009,1.358-3.183,3.642-4.014,5.921c-0.557,1.528-1.003,3.145-0.843,4.764c0.305,3.086,2.816,5.613,5.69,6.778
					c0.431,0.174,0.889,0.327,1.351,0.279c0.462-0.048,0.928-0.346,1.034-0.799"/>
			</g>
			<g>
				<path style="fill:#40B652;" d="M130.23,139.306c1.671-2.061,2.003-4.992,1.309-7.553c-0.694-2.561-2.303-4.79-4.163-6.681
					c-1.709,1.154-2.707,3.098-3.413,5.035c-0.474,1.3-0.853,2.675-0.717,4.052c0.259,2.625,2.395,4.773,4.839,5.764
					c0.366,0.148,0.756,0.278,1.149,0.237c0.393-0.041,0.789-0.294,0.879-0.679"/>
			</g>
			<g>
				<path style="fill:#40B652;" d="M216.395,96.963c1.965-2.423,2.356-5.87,1.539-8.881c-0.816-3.011-2.708-5.632-4.896-7.856
					c-2.009,1.357-3.183,3.642-4.014,5.921c-0.557,1.528-1.003,3.146-0.843,4.764c0.305,3.086,2.816,5.613,5.69,6.778
					c0.431,0.174,0.889,0.327,1.351,0.279c0.462-0.048,0.928-0.346,1.033-0.799"/>
			</g>
			<g>
				<path style="fill:#40B652;" d="M182.909,114.116c1.965-2.423,2.356-5.87,1.539-8.881c-0.816-3.011-2.708-5.632-4.896-7.856
					c-2.009,1.358-3.183,3.642-4.014,5.921c-0.557,1.528-1.003,3.146-0.843,4.764c0.305,3.086,2.816,5.613,5.69,6.778
					c0.431,0.174,0.889,0.327,1.351,0.279c0.462-0.048,0.928-0.346,1.034-0.799"/>
			</g>
			<g>
				<path style="fill:#40B652;" d="M130.738,206.543c2.374-3.408,2.558-8.022,1.182-11.941c-1.376-3.919-4.142-7.215-7.263-9.956
					c-2.536,1.998-3.873,5.145-4.754,8.251c-0.591,2.083-1.026,4.274-0.657,6.408c0.704,4.068,4.283,7.179,8.212,8.447
					c0.589,0.19,1.212,0.348,1.821,0.24c0.609-0.108,1.198-0.55,1.295-1.161"/>
			</g>
			<g>
				<path style="fill:#40B652;" d="M77.492,218.926c2.374-3.408,2.558-8.022,1.181-11.941c-1.376-3.919-4.142-7.215-7.263-9.956
					c-2.536,1.997-3.873,5.145-4.754,8.251c-0.591,2.083-1.026,4.274-0.657,6.408c0.704,4.068,4.283,7.179,8.212,8.447
					c0.589,0.19,1.212,0.348,1.821,0.24c0.609-0.108,1.198-0.55,1.295-1.161"/>
			</g>
			<g>
				<path style="fill:#40B652;" d="M145.996,153.177c2.374-3.408,2.558-8.022,1.182-11.941c-1.376-3.919-4.142-7.215-7.263-9.956
					c-2.536,1.998-3.873,5.145-4.755,8.251c-0.591,2.083-1.026,4.274-0.657,6.408c0.704,4.068,4.283,7.179,8.212,8.447
					c0.589,0.19,1.212,0.348,1.821,0.24s1.198-0.55,1.295-1.161"/>
			</g>
			<g>
				<path style="fill:#40B652;" d="M242.301,164.505c2.374-3.408,2.558-8.022,1.182-11.941c-1.376-3.919-4.142-7.215-7.263-9.956
					c-2.536,1.998-3.873,5.145-4.755,8.251c-0.591,2.083-1.026,4.274-0.657,6.408c0.704,4.068,4.283,7.179,8.212,8.447
					c0.589,0.19,1.212,0.348,1.821,0.24c0.609-0.108,1.198-0.55,1.295-1.161"/>
			</g>
			<g>
				<path style="fill:#40B652;" d="M165.044,101.85c2.342-0.268,4.376-1.921,5.528-3.978c1.152-2.057,1.518-4.471,1.514-6.829
					c-1.802-0.33-3.644,0.282-5.298,1.072c-1.109,0.53-2.205,1.167-2.975,2.125c-1.468,1.826-1.45,4.518-0.515,6.667
					c0.14,0.322,0.307,0.647,0.581,0.865c0.275,0.219,0.684,0.304,0.98,0.116"/>
			</g>
			<g>
				<path style="fill:#40B652;" d="M167.906,233.076c2.342-0.268,4.376-1.921,5.528-3.978c1.152-2.057,1.518-4.471,1.514-6.829
					c-1.802-0.33-3.644,0.282-5.298,1.072c-1.109,0.53-2.205,1.167-2.975,2.125c-1.468,1.826-1.45,4.518-0.515,6.667
					c0.14,0.322,0.307,0.647,0.581,0.865c0.275,0.219,0.684,0.304,0.98,0.116"/>
			</g>
			<g>
				<path style="fill:#40B652;" d="M70.125,233.753c-0.205-2.348-1.804-4.426-3.829-5.633c-2.025-1.207-4.429-1.637-6.786-1.696
					c-0.378,1.793,0.184,3.651,0.93,5.324c0.5,1.123,1.108,2.235,2.045,3.031c1.787,1.516,4.478,1.57,6.651,0.693
					c0.326-0.131,0.655-0.289,0.881-0.558c0.226-0.269,0.322-0.675,0.142-0.977"/>
			</g>
			<g>
				<path style="fill:#40B652;" d="M84.371,183.144c1.504-1.815,1.827-4.416,1.234-6.698c-0.593-2.282-2.001-4.277-3.636-5.975
					c-1.529,1.01-2.434,2.727-3.08,4.441c-0.433,1.15-0.783,2.369-0.675,3.593c0.205,2.334,2.082,4.263,4.245,5.167
					c0.324,0.135,0.669,0.254,1.019,0.222c0.35-0.032,0.704-0.254,0.787-0.595"/>
			</g>
			<g>
				<path style="fill:#40B652;" d="M89.763,222.978c1.504-1.815,1.827-4.416,1.234-6.698c-0.593-2.282-2.001-4.277-3.636-5.975
					c-1.529,1.01-2.434,2.727-3.08,4.441c-0.433,1.15-0.783,2.369-0.675,3.593c0.205,2.334,2.082,4.263,4.245,5.167
					c0.324,0.135,0.669,0.254,1.019,0.222s0.704-0.254,0.787-0.595"/>
			</g>
			<g>
				<path style="fill:#40B652;" d="M255.331,85.604c-0.228-2.347-1.845-4.409-3.882-5.596c-2.037-1.188-4.444-1.595-6.802-1.632
					c-0.361,1.796,0.218,3.649,0.98,5.315c0.511,1.118,1.129,2.225,2.073,3.011c1.801,1.5,4.492,1.528,6.657,0.63
					c0.324-0.134,0.652-0.296,0.875-0.566c0.223-0.271,0.316-0.678,0.133-0.978"/>
			</g>
			<g>
				<path style="fill:#40B652;" d="M214.715,149.694c0.807-2.215,0.238-4.773-1.086-6.724c-1.324-1.95-3.321-3.357-5.431-4.408
					c-1.101,1.464-1.378,3.386-1.41,5.218c-0.022,1.229,0.058,2.494,0.571,3.611c0.977,2.13,3.393,3.317,5.733,3.442
					c0.351,0.019,0.715,0.015,1.034-0.133c0.318-0.148,0.577-0.476,0.542-0.825"/>
			</g>
			<g>
				<path style="fill:#40B652;" d="M251.762,103.612c0.807-2.215,0.238-4.773-1.086-6.724c-1.325-1.95-3.321-3.357-5.431-4.407
					c-1.101,1.464-1.378,3.386-1.41,5.218c-0.022,1.229,0.058,2.494,0.571,3.611c0.977,2.13,3.393,3.317,5.733,3.442
					c0.351,0.019,0.715,0.015,1.034-0.133c0.318-0.148,0.577-0.476,0.542-0.825"/>
			</g>
			<g>
				<path style="fill:#40B652;" d="M222.114,198.868c0.807-2.215,0.238-4.773-1.086-6.724c-1.325-1.95-3.321-3.357-5.431-4.408
					c-1.101,1.464-1.378,3.386-1.41,5.218c-0.022,1.229,0.058,2.494,0.571,3.611c0.977,2.13,3.393,3.317,5.733,3.442
					c0.351,0.019,0.715,0.015,1.034-0.133s0.577-0.476,0.542-0.825"/>
			</g>
			<g>
				<path style="fill:#40B652;" d="M228.913,142.493c2.665-2.042,3.939-5.55,3.841-8.905c-0.098-3.356-1.418-6.573-3.149-9.449
					c-2.443,0.916-4.246,3.011-5.687,5.186c-0.967,1.459-1.839,3.039-2.079,4.773c-0.457,3.305,1.536,6.58,4.25,8.521
					c0.407,0.291,0.848,0.565,1.343,0.632c0.495,0.066,1.057-0.129,1.282-0.576"/>
			</g>
			<g>
				<path style="fill:#40B652;" d="M240.661,76.781c3.122-0.652,5.165-3.009,5.795-5.757c0.63-2.747,0.001-5.84-1.114-8.811
					c-2.655-0.174-4.922,0.844-6.843,2.062c-1.289,0.817-2.509,1.767-3.126,3.078c-1.177,2.499,0.116,5.89,2.423,8.473
					c0.346,0.387,0.73,0.774,1.214,1.013c0.484,0.239,1.091,0.291,1.414,0.014"/>
			</g>
			<g>
				<path style="fill:#40B652;" d="M239.917,103.584c1.475-1.839,1.755-4.445,1.126-6.717c-0.63-2.272-2.07-4.244-3.732-5.916
					c-1.512,1.034-2.39,2.765-3.008,4.49c-0.415,1.157-0.744,2.381-0.617,3.604c0.243,2.331,2.151,4.229,4.327,5.097
					c0.326,0.13,0.673,0.243,1.022,0.205c0.349-0.038,0.7-0.265,0.778-0.608"/>
			</g>
			<g>
				<path style="fill:#40B652;" d="M209.989,253.121c-0.373-4.264-3.275-8.035-6.952-10.226c-3.677-2.191-8.042-2.972-12.32-3.079
					c-0.687,3.255,0.334,6.628,1.688,9.667c0.908,2.038,2.011,4.058,3.712,5.502c3.244,2.753,8.13,2.85,12.075,1.258
					c0.591-0.239,1.188-0.525,1.599-1.013s0.585-1.226,0.258-1.773"/>
			</g>
			<g>
				<path style="fill:#40B652;" d="M210.093,219.537c-0.205-2.349-1.804-4.426-3.829-5.633c-2.025-1.207-4.429-1.637-6.786-1.696
					c-0.378,1.793,0.184,3.651,0.93,5.324c0.5,1.123,1.108,2.235,2.045,3.031c1.787,1.516,4.478,1.57,6.651,0.693
					c0.326-0.131,0.655-0.289,0.881-0.558c0.226-0.269,0.322-0.675,0.142-0.977"/>
			</g>
			<g>
				<path style="fill:#40B652;" d="M158.888,163.696c-0.206-2.348-1.804-4.426-3.829-5.633c-2.025-1.207-4.429-1.637-6.786-1.696
					c-0.378,1.793,0.184,3.651,0.93,5.324c0.5,1.123,1.108,2.235,2.045,3.031c1.787,1.516,4.478,1.57,6.651,0.693
					c0.326-0.131,0.655-0.289,0.881-0.558c0.226-0.269,0.322-0.675,0.142-0.977"/>
			</g>
			<g>
				<path style="fill:#40B652;" d="M221.672,254.217c-0.205-2.349-1.804-4.426-3.829-5.632c-2.025-1.207-4.429-1.637-6.786-1.696
					c-0.378,1.793,0.184,3.651,0.93,5.324c0.5,1.123,1.108,2.235,2.045,3.031c1.787,1.516,4.478,1.57,6.651,0.693
					c0.326-0.131,0.655-0.289,0.88-0.558c0.226-0.269,0.322-0.675,0.142-0.977"/>
			</g>
			<g>
				<path style="fill:#40B652;" d="M237.525,218.017c0.551-2.916-0.679-5.979-2.723-8.131c-2.044-2.153-4.811-3.493-7.647-4.367
					c-1.069,2.044-1.02,4.487-0.687,6.77c0.224,1.531,0.581,3.087,1.446,4.37c1.649,2.446,4.893,3.428,7.825,3.105
					c0.439-0.048,0.892-0.128,1.257-0.376c0.365-0.249,0.62-0.709,0.505-1.135"/>
			</g>
			<g>
				<path style="fill:#40B652;" d="M132.79,167.913c-0.206-2.349-1.804-4.426-3.829-5.633c-2.025-1.207-4.429-1.637-6.786-1.696
					c-0.378,1.793,0.184,3.651,0.93,5.324c0.5,1.123,1.108,2.235,2.045,3.031c1.787,1.516,4.478,1.57,6.651,0.693
					c0.326-0.131,0.654-0.289,0.881-0.558c0.226-0.269,0.322-0.675,0.142-0.977"/>
			</g>
			<g>
				<path style="fill:#40B652;" d="M102.692,184.513c-0.205-2.349-1.804-4.426-3.829-5.633c-2.025-1.207-4.429-1.637-6.786-1.696
					c-0.378,1.793,0.184,3.651,0.93,5.324c0.5,1.123,1.108,2.235,2.045,3.031c1.787,1.516,4.478,1.57,6.651,0.693
					c0.326-0.131,0.655-0.289,0.881-0.558c0.226-0.269,0.322-0.675,0.142-0.977"/>
			</g>
			<g>
				<path style="fill:#40B652;" d="M80.988,193.227c-0.205-2.349-1.804-4.426-3.829-5.633c-2.025-1.207-4.429-1.637-6.786-1.696
					c-0.378,1.793,0.184,3.651,0.93,5.324c0.5,1.123,1.108,2.235,2.045,3.031c1.786,1.516,4.478,1.57,6.651,0.693
					c0.326-0.131,0.655-0.289,0.881-0.558c0.226-0.269,0.322-0.675,0.142-0.977"/>
			</g>
			<g>
				<path style="fill:#40B652;" d="M80.477,249.158c-2.441-0.531-4.97,0.454-6.724,2.154c-1.755,1.7-2.819,4.034-3.493,6.437
					c1.724,0.955,3.759,0.965,5.655,0.728c1.272-0.159,2.561-0.432,3.614-1.143c2.007-1.356,2.763-4.105,2.438-6.615
					c-0.049-0.376-0.124-0.764-0.338-1.081c-0.214-0.317-0.603-0.544-0.956-0.454"/>
			</g>
			<g>
				<path style="fill:#40B652;" d="M221.769,80.556c3.811-1.874,6.259-5.912,6.967-10.099c0.708-4.188-0.135-8.505-1.571-12.502
					c-3.258,0.532-6.012,2.686-8.337,5.029c-1.56,1.571-3.033,3.316-3.759,5.408c-1.384,3.988,0.279,8.543,3.167,11.622
					c0.433,0.461,0.912,0.911,1.511,1.116c0.598,0.205,1.344,0.101,1.733-0.398"/>
			</g>
			<g>
				<path style="fill:#40B652;" d="M274.786,87.32c3.811-1.874,6.259-5.912,6.967-10.099c0.708-4.188-0.135-8.505-1.571-12.502
					c-3.258,0.532-6.012,2.686-8.337,5.029c-1.56,1.571-3.033,3.316-3.759,5.408c-1.384,3.988,0.279,8.543,3.167,11.622
					c0.433,0.461,0.912,0.911,1.511,1.115c0.599,0.205,1.344,0.101,1.733-0.398"/>
			</g>
		</g>
	</g>
</g>
</svg>
